FWD
version=1
nRows=25
nColumns=23
inDegrees=yes
endheader
time	platform_rz	pelvis_rx	pelvis_ry	pelvis_rz	pelvis_tx	pelvis_ty	pelvis_tz	LHip_rz	LKnee_rz	RHip_rz	RKnee_rz	platform_rz_u	pelvis_rx_u	pelvis_ry_u	pelvis_rz_u	pelvis_tx_u	pelvis_ty_u	pelvis_tz_u	LHip_rz_u	LKnee_rz_u	RHip_rz_u	RKnee_rz_u
      0.25000000	    -10.00000000	     -0.00000000	      0.00000000	     -0.00000000	      0.03182594	      0.84425144	      0.00000000	     -8.68064076	    -30.14029848	     34.27761939	    -37.08570601	      0.00000000	     -0.00000000	      0.00000000	     -0.00000000	      0.06414066	      0.11533346	      0.00000000	     21.61304316	     -2.07124836	     71.23343464	   -117.69673798
      0.25100000	    -10.00000000	     -0.00000000	      0.00000000	     -0.00000000	      0.03188835	      0.84437572	      0.00000000	     -8.65902320	    -30.14237267	     34.34885490	    -37.20341114	      0.00000000	     -0.00000000	      0.00000000	     -0.00000000	      0.06594684	      0.10547260	      0.00000000	     21.60911342	     -2.06903286	     71.23249311	   -117.69262683
      0.25200000	    -10.00000000	     -0.00000000	      0.00000000	     -0.00000000	      0.03195077	      0.84450001	      0.00000000	     -8.63740565	    -30.14444685	     34.42009041	    -37.32111627	      0.00000000	     -0.00000000	      0.00000000	     -0.00000000	      0.06775301	      0.09561173	      0.00000000	     21.60518369	     -2.06681735	     71.23155158	   -117.68851567
      0.25300000	    -10.00000000	     -0.00000000	      0.00000000	     -0.00000000	      0.03201319	      0.84462429	      0.00000000	     -8.61578810	    -30.14652103	     34.49132592	    -37.43882140	      0.00000000	     -0.00000000	      0.00000000	     -0.00000000	      0.06955918	      0.08575087	      0.00000000	     21.60125396	     -2.06460185	     71.23061006	   -117.68440452
      0.25400000	    -10.00000000	     -0.00000000	      0.00000000	     -0.00000000	      0.03207561	      0.84474858	      0.00000000	     -8.59417054	    -30.14859521	     34.56256144	    -37.55652653	      0.00000000	     -0.00000000	      0.00000000	     -0.00000000	      0.07136536	      0.07589000	      0.00000000	     21.59732423	     -2.06238635	     71.22966853	   -117.68029337
      0.25500000	    -10.00000000	     -0.00000000	      0.00000000	     -0.00000000	      0.03213802	      0.84487286	      0.00000000	     -8.57255299	    -30.15066939	     34.63379695	    -37.67423166	      0.00000000	     -0.00000000	      0.00000000	     -0.00000000	      0.07317153	      0.06602914	      0.00000000	     21.59339450	     -2.06017084	     71.22872700	   -117.67618221
      0.25600000	    -10.00000000	     -0.00000000	      0.00000000	     -0.00000000	      0.03220044	      0.84499715	      0.00000000	     -8.55093544	    -30.15274357	     34.70503246	    -37.79193679	      0.00000000	     -0.00000000	      0.00000000	     -0.00000000	      0.07497770	      0.05616827	      0.00000000	     21.58946477	     -2.05795534	     71.22778547	   -117.67207106
      0.25700000	    -10.00000000	     -0.00000000	      0.00000000	     -0.00000000	      0.03226286	      0.84512143	      0.00000000	     -8.52931788	    -30.15481775	     34.77626797	    -37.90964192	      0.00000000	     -0.00000000	      0.00000000	     -0.00000000	      0.07678388	      0.04630741	      0.00000000	     21.58553504	     -2.05573983	     71.22684394	   -117.66795991
      0.25800000	    -10.00000000	     -0.00000000	      0.00000000	     -0.00000000	      0.03232528	      0.84524571	      0.00000000	     -8.50770033	    -30.15689194	     34.84750348	    -38.02734705	      0.00000000	     -0.00000000	      0.00000000	     -0.00000000	      0.07859005	      0.03644654	      0.00000000	     21.58160531	     -2.05352433	     71.22590241	   -117.66384875
      0.25900000	    -10.00000000	     -0.00000000	      0.00000000	     -0.00000000	      0.03238769	      0.84537000	      0.00000000	     -8.48608278	    -30.15896612	     34.91873900	    -38.14505218	      0.00000000	     -0.00000000	      0.00000000	     -0.00000000	      0.08039622	      0.02658568	      0.00000000	     21.57767558	     -2.05130883	     71.22496088	   -117.65973760
      0.26000000	    -10.00000000	     -0.00000000	      0.00000000	     -0.00000000	      0.03245011	      0.84549428	      0.00000000	     -8.46446522	    -30.16104030	     34.98997451	    -38.26275731	      0.00000000	     -0.00000000	      0.00000000	     -0.00000000	      0.08220239	      0.01672482	      0.00000000	     21.57374585	     -2.04909332	     71.22401936	   -117.65562644
      0.26100000	    -10.00000000	     -0.00000000	      0.00000000	     -0.00000000	      0.03251253	      0.84561857	      0.00000000	     -8.44284767	    -30.16311448	     35.06121002	    -38.38046245	      0.00000000	     -0.00000000	      0.00000000	     -0.00000000	      0.08400857	      0.00686395	      0.00000000	     21.56981612	     -2.04687782	     71.22307783	   -117.65151529
      0.26200000	    -10.00000000	     -0.00000000	      0.00000000	     -0.00000000	      0.03257495	      0.84574285	      0.00000000	     -8.42123012	    -30.16518866	     35.13244553	    -38.49816758	      0.00000000	     -0.00000000	      0.00000000	     -0.00000000	      0.08581474	     -0.00299691	      0.00000000	     21.56588639	     -2.04466232	     71.22213630	   -117.64740414
      0.26300000	    -10.00000000	     -0.00000000	      0.00000000	     -0.00000000	      0.03263736	      0.84586714	      0.00000000	     -8.39961256	    -30.16726284	     35.20368105	    -38.61587271	      0.00000000	     -0.00000000	      0.00000000	     -0.00000000	      0.08762091	     -0.01285778	      0.00000000	     21.56195666	     -2.04244681	     71.22119477	   -117.64329298
      0.26400000	    -10.00000000	     -0.00000000	      0.00000000	     -0.00000000	      0.03269978	      0.84599142	      0.00000000	     -8.37799501	    -30.16933703	     35.27491656	    -38.73357784	      0.00000000	     -0.00000000	      0.00000000	     -0.00000000	      0.08942709	     -0.02271864	      0.00000000	     21.55802692	     -2.04023131	     71.22025324	   -117.63918183
      0.26500000	    -10.00000000	     -0.00000000	      0.00000000	     -0.00000000	      0.03276220	      0.84611571	      0.00000000	     -8.35637746	    -30.17141121	     35.34615207	    -38.85128297	      0.00000000	     -0.00000000	      0.00000000	     -0.00000000	      0.09123326	     -0.03257951	      0.00000000	     21.55409719	     -2.03801580	     71.21931171	   -117.63507068
      0.26600000	    -10.00000000	     -0.00000000	      0.00000000	     -0.00000000	      0.03282462	      0.84623999	      0.00000000	     -8.33475990	    -30.17348539	     35.41738758	    -38.96898810	      0.00000000	     -0.00000000	      0.00000000	     -0.00000000	      0.09303943	     -0.04244037	      0.00000000	     21.55016746	     -2.03580030	     71.21837018	   -117.63095952
      0.26700000	    -10.00000000	     -0.00000000	      0.00000000	     -0.00000000	      0.03288703	      0.84636427	      0.00000000	     -8.31314235	    -30.17555957	     35.48862309	    -39.08669323	      0.00000000	     -0.00000000	      0.00000000	     -0.00000000	      0.09484561	     -0.05230124	      0.00000000	     21.54623773	     -2.03358480	     71.21742865	   -117.62684837
      0.26800000	    -10.00000000	     -0.00000000	      0.00000000	     -0.00000000	      0.03294945	      0.84648856	      0.00000000	     -8.29152480	    -30.17763375	     35.55985861	    -39.20439836	      0.00000000	     -0.00000000	      0.00000000	     -0.00000000	      0.09665178	     -0.06216210	      0.00000000	     21.54230800	     -2.03136929	     71.21648713	   -117.62273722
      0.26900000	    -10.00000000	     -0.00000000	      0.00000000	     -0.00000000	      0.03301187	      0.84661284	      0.00000000	     -8.26990724	    -30.17970793	     35.63109412	    -39.32210349	      0.00000000	     -0.00000000	      0.00000000	     -0.00000000	      0.09845795	     -0.07202296	      0.00000000	     21.53837827	     -2.02915379	     71.21554560	   -117.61862606
      0.27000000	    -10.00000000	     -0.00000000	      0.00000000	     -0.00000000	      0.03307429	      0.84673713	      0.00000000	     -8.24828969	    -30.18178212	     35.70232963	    -39.43980862	      0.00000000	     -0.00000000	      0.00000000	     -0.00000000	      0.10026413	     -0.08188383	      0.00000000	     21.53444854	     -2.02693829	     71.21460407	   -117.61451491
      0.27100000	    -10.00000000	     -0.00000000	      0.00000000	     -0.00000000	      0.03313670	      0.84686141	      0.00000000	     -8.22667214	    -30.18385630	     35.77356514	    -39.55751375	      0.00000000	     -0.00000000	      0.00000000	     -0.00000000	      0.10207030	     -0.09174469	      0.00000000	     21.53051881	     -2.02472278	     71.21366254	   -117.61040375
      0.27200000	    -10.00000000	     -0.00000000	      0.00000000	     -0.00000000	      0.03319912	      0.84698570	      0.00000000	     -8.20505458	    -30.18593048	     35.84480065	    -39.67521888	      0.00000000	     -0.00000000	      0.00000000	     -0.00000000	      0.10387647	     -0.10160556	      0.00000000	     21.52658908	     -2.02250728	     71.21272101	   -117.60629260
      0.27300000	    -10.00000000	     -0.00000000	      0.00000000	     -0.00000000	      0.03326154	      0.84710998	      0.00000000	     -8.18343703	    -30.18800466	     35.91603617	    -39.79292401	      0.00000000	     -0.00000000	      0.00000000	     -0.00000000	      0.10568265	     -0.11146642	      0.00000000	     21.52265935	     -2.02029178	     71.21177948	   -117.60218145
      0.27400000	    -10.00000000	     -0.00000000	      0.00000000	     -0.00000000	      0.03332395	      0.84723427	      0.00000000	     -8.16181947	    -30.19007884	     35.98727168	    -39.91062914	      0.00000000	     -0.00000000	      0.00000000	     -0.00000000	      0.10748882	     -0.12132729	      0.00000000	     21.51872962	     -2.01807627	     71.21083795	   -117.59807029
